<svg width="746" height="169" viewBox="0 0 746 169" fill="none" xmlns="http://www.w3.org/2000/svg">
<path d="M0 76.7004V17.4999C0 7.83496 7.83496 0 17.4999 0H76.7004C80.4134 0 83.9744 1.47499 86.5999 4.10047L163.874 81.375C170.709 88.2091 170.709 99.2894 163.874 106.124L106.124 163.874C99.2894 170.709 88.2091 170.709 81.375 163.874L4.10047 86.5999C1.47499 83.9744 0 80.4134 0 76.7004Z" fill="#D14D45"/>
<path d="M42.4997 29.9998C42.4997 37.0414 36.7914 42.7497 29.7498 42.7497C22.7082 42.7497 16.9999 37.0414 16.9999 29.9998C16.9999 22.9582 22.7082 17.2499 29.7498 17.2499C36.7914 17.2499 42.4997 22.9582 42.4997 29.9998Z" fill="white"/>
<path d="M79.2022 122.249H58.1536V31.0842H79.2022V64.0238C84.396 57.4633 91.5033 54.593 98.7473 54.593C115.149 54.593 127.86 67.5775 127.86 89.1728C127.86 111.588 115.012 123.889 98.7473 123.889C91.3666 123.889 84.6694 120.882 79.2022 114.595V122.249ZM79.2022 79.1952V99.4237C81.7991 102.977 87.2663 105.301 91.7767 105.301C100.114 105.301 106.401 99.1503 106.401 89.1728C106.401 79.3319 100.114 73.1813 91.7767 73.1813C87.2663 73.1813 81.7991 75.6416 79.2022 79.1952Z" fill="white"/>
<path d="M228.497 112H194.266V53.4563H227.444C239.03 53.4563 244.559 61.0046 244.559 68.3775C244.559 75.6625 240.083 80.5777 234.554 81.8065C240.785 82.772 245.701 88.7405 245.701 96.1133C245.701 104.627 239.995 112 228.497 112ZM209.363 66.0076V76.1014H224.021C227.093 76.1014 229.199 73.9071 229.199 71.0106C229.199 68.1141 227.093 66.0076 224.021 66.0076H209.363ZM209.363 88.565V99.4486H224.548C228.146 99.4486 230.34 97.2544 230.34 94.0946C230.34 91.1103 228.234 88.565 224.548 88.565H209.363ZM310.8 112H294.386L291.402 103.135H267.089L264.105 112H247.692L269.723 53.4563H288.681L310.8 112ZM287.452 90.4082L279.202 66.622L271.039 90.4082H287.452ZM358.746 112H313.281V99.9753L338.208 66.622H313.281V53.4563H358.132V65.481L333.117 98.8342H358.746V112ZM424.286 112H407.872L404.888 103.135H380.575L377.591 112H361.178L383.209 53.4563H402.167L424.286 112ZM400.938 90.4082L392.688 66.622L384.525 90.4082H400.938ZM478.552 112H461.261L451.431 92.1636H443.707V112H428.61V53.4563H457.926C470.916 53.4563 478.289 62.0579 478.289 72.9416C478.289 83.1231 472.057 88.565 466.615 90.4959L478.552 112ZM462.929 72.766C462.929 68.7285 459.593 66.1832 455.644 66.1832H443.707V79.3489H455.644C459.593 79.3489 462.929 76.8035 462.929 72.766ZM504.883 103.749L512.87 92.4269C517.083 96.64 523.578 100.151 531.565 100.151C536.744 100.151 539.904 97.9565 539.904 95.1478C539.904 91.8125 536.13 90.4959 529.898 89.1794C520.243 87.2484 506.726 84.7908 506.726 70.9228C506.726 61.0924 515.064 52.5786 530.073 52.5786C539.465 52.5786 547.628 55.3872 553.859 60.7413L545.609 71.5372C540.694 67.4997 534.286 65.481 529.108 65.481C524.105 65.481 522.174 67.4997 522.174 70.0451C522.174 73.1171 525.772 74.1704 532.268 75.3992C541.922 77.4179 555.264 80.2266 555.264 93.4802C555.264 105.242 546.574 113.053 530.863 113.053C519.014 113.053 510.764 109.367 504.883 103.749ZM616.831 112H601.734V88.4772H577.421V112H562.325V53.4563H577.421V75.3114H601.734V53.4563H616.831V112ZM624.398 82.772C624.398 64.9544 637.827 52.4908 655.732 52.4908C673.638 52.4908 686.979 64.9544 686.979 82.772C686.979 100.59 673.638 113.053 655.732 113.053C637.827 113.053 624.398 100.59 624.398 82.772ZM671.619 82.772C671.619 73.2049 665.387 65.8321 655.732 65.8321C645.99 65.8321 639.758 73.2049 639.758 82.772C639.758 92.2514 645.99 99.712 655.732 99.712C665.387 99.712 671.619 92.2514 671.619 82.772ZM709.679 112H694.582V53.4563H723.898C737.064 53.4563 744.261 62.3212 744.261 72.9416C744.261 83.4742 737.064 92.1636 723.898 92.1636H709.679V112ZM728.901 72.8538C728.901 68.8163 725.917 66.1832 721.879 66.1832H709.679V79.3489H721.879C725.917 79.3489 728.901 76.8035 728.901 72.8538Z" fill="#D14D45"/>
</svg>
