<svg width="429" height="250" viewBox="0 0 429 250" fill="none" xmlns="http://www.w3.org/2000/svg">
<path fill-rule="evenodd" clip-rule="evenodd" d="M129 76.7004V17.4999C129 7.83496 136.835 0 146.5 0H205.7C209.413 0 212.974 1.47498 215.6 4.10047L292.874 81.375C299.709 88.2091 299.709 99.2894 292.874 106.124L235.124 163.874C228.289 170.709 217.209 170.709 210.375 163.874L133.1 86.5999C130.475 83.9744 129 80.4134 129 76.7004ZM208.202 122.249H187.154V31.0842H208.202V64.0238C213.396 57.4633 220.503 54.593 227.747 54.593C244.149 54.593 256.86 67.5775 256.86 89.1728C256.86 111.588 244.012 123.889 227.747 123.889C220.367 123.889 213.669 120.882 208.202 114.595V122.249ZM208.202 99.4237V79.1952C210.799 75.6416 216.266 73.1813 220.777 73.1813C229.114 73.1813 235.401 79.3319 235.401 89.1728C235.401 99.1503 229.114 105.301 220.777 105.301C216.266 105.301 210.799 102.977 208.202 99.4237ZM158.75 42.7497C165.791 42.7497 171.5 37.0414 171.5 29.9998C171.5 22.9582 165.791 17.2499 158.75 17.2499C151.708 17.2499 146 22.9582 146 29.9998C146 37.0414 151.708 42.7497 158.75 42.7497Z" fill="white"/>
<path d="M30.3721 229.5H4.04961V184.482H29.5621C38.4713 184.482 42.7234 190.286 42.7234 195.956C42.7234 201.558 39.2812 205.337 35.0291 206.282C39.8211 207.025 43.6008 211.614 43.6008 217.284C43.6008 223.831 39.2137 229.5 30.3721 229.5ZM15.6585 194.133V201.895H26.9299C29.2922 201.895 30.912 200.208 30.912 197.981C30.912 195.753 29.2922 194.133 26.9299 194.133H15.6585ZM15.6585 211.479V219.848H27.3349C30.1021 219.848 31.7894 218.161 31.7894 215.731C31.7894 213.437 30.1696 211.479 27.3349 211.479H15.6585ZM93.6598 229.5H81.0386L78.7438 222.683H60.0481L57.7533 229.5H45.132L62.0729 184.482H76.6515L93.6598 229.5ZM75.7066 212.897L69.3622 194.606L63.0853 212.897H75.7066ZM130.529 229.5H95.5676V220.253L114.736 194.606H95.5676V184.482H130.057V193.728L110.821 219.376H130.529V229.5ZM180.927 229.5H168.306L166.011 222.683H147.315L145.02 229.5H132.399L149.34 184.482H163.918L180.927 229.5ZM162.974 212.897L156.629 194.606L150.352 212.897H162.974ZM222.656 229.5H209.359L201.8 214.246H195.861V229.5H184.252V184.482H206.795C216.784 184.482 222.453 191.096 222.453 199.465C222.453 207.295 217.661 211.479 213.477 212.964L222.656 229.5ZM210.642 199.33C210.642 196.226 208.077 194.268 205.04 194.268H195.861V204.392H205.04C208.077 204.392 210.642 202.435 210.642 199.33ZM242.903 223.156L249.045 214.449C252.285 217.689 257.279 220.388 263.421 220.388C267.403 220.388 269.833 218.701 269.833 216.541C269.833 213.977 266.931 212.964 262.139 211.952C254.715 210.467 244.321 208.577 244.321 197.913C244.321 190.354 250.732 183.807 262.274 183.807C269.496 183.807 275.773 185.967 280.565 190.084L274.22 198.386C270.441 195.281 265.513 193.728 261.531 193.728C257.684 193.728 256.199 195.281 256.199 197.238C256.199 199.6 258.967 200.41 263.961 201.355C271.385 202.908 281.644 205.067 281.644 215.259C281.644 224.303 274.963 230.31 262.881 230.31C253.77 230.31 247.425 227.475 242.903 223.156ZM328.987 229.5H317.379V211.412H298.683V229.5H287.074V184.482H298.683V201.288H317.379V184.482H328.987V229.5ZM334.806 207.025C334.806 193.323 345.133 183.739 358.901 183.739C372.67 183.739 382.929 193.323 382.929 207.025C382.929 220.726 372.67 230.31 358.901 230.31C345.133 230.31 334.806 220.726 334.806 207.025ZM371.118 207.025C371.118 199.668 366.326 193.998 358.901 193.998C351.409 193.998 346.617 199.668 346.617 207.025C346.617 214.314 351.409 220.051 358.901 220.051C366.326 220.051 371.118 214.314 371.118 207.025ZM400.384 229.5H388.776V184.482H411.318C421.442 184.482 426.977 191.299 426.977 199.465C426.977 207.565 421.442 214.246 411.318 214.246H400.384V229.5ZM415.166 199.398C415.166 196.293 412.871 194.268 409.766 194.268H400.384V204.392H409.766C412.871 204.392 415.166 202.435 415.166 199.398Z" fill="white"/>
</svg>
