<svg width="1574" height="512" viewBox="0 0 1574 512" fill="none" xmlns="http://www.w3.org/2000/svg">
<path d="M0 254.952V509.8H123.324C265.437 509.8 277.997 509.281 309.036 502.014C378.691 485.613 420.422 434.851 420.422 366.545C420.422 323.776 404.124 288.897 373.397 265.748C360.524 256.094 340.386 246.855 327.098 244.571C322.946 243.844 321.077 241.976 324.711 241.976C328.033 241.976 343.189 235.124 351.493 230.038C361.147 224.017 375.68 210.003 382.013 200.556C405.992 164.743 409.522 110.97 390.213 72.5614C371.009 34.3601 335.403 12.4567 276.855 2.90636C263.464 0.726401 260.246 0.726392 131.628 0.414969L0 -0.000256264V254.952ZM232.218 93.1154C251.734 97.1639 266.371 107.026 275.194 122.078C279.762 129.759 281.423 136.922 281.527 147.822C281.631 175.746 265.437 195.262 235.021 203.774C227.131 205.954 224.848 206.058 171.075 206.473L115.227 206.785V149.172V91.4544H169.726C215.297 91.4544 225.574 91.7659 232.218 93.1154ZM251.63 294.71C269.693 299.693 284.018 309.658 292.842 323.153C302.6 338.413 303.845 365.299 295.437 381.909C287.029 398.622 271.457 409.833 248.101 416.165L238.239 418.864L176.785 419.279L115.227 419.591V355.645V291.7L179.38 292.011C241.665 292.426 243.637 292.426 251.63 294.71Z" fill="#FA571D"/>
<path d="M494.554 424.864C495.437 424.865 496.24 424.864 497.035 424.796C504.382 424.163 511.224 417.673 576.937 351.284L590.882 337.191L591.03 337.043C636.184 291.473 673.658 253.065 674.387 251.713C677.605 245.692 677.501 239.152 673.764 198.667L670.131 158.908L665.149 118.735C663.799 107.628 662.241 103.579 657.778 98.3886C651.549 91.3299 647.085 89.565 632.033 88.3193C624.56 87.6965 618.436 86.8661 618.435 86.5547L604.68 85.5166L582.102 83.959C577.223 83.6475 562.067 82.4019 548.365 81.1562C522.205 78.8724 515.872 78.9764 510.267 81.7793C508.398 82.8179 484.73 105.552 457.74 132.437C411.027 179.047 408.431 181.85 405.11 188.909C397.116 206.245 381.753 225.138 367.116 236.142L359.953 241.436L369.088 246.626C388.293 257.63 401.477 269.775 412.896 287.215C419.643 297.492 428.674 318.876 431.062 330.191C433.138 339.742 435.007 361.541 434.488 370.78L434.176 378.462L457.014 399.224C480.889 420.919 486.599 424.864 494.384 424.864H494.554ZM621.219 158.693C612.738 164.021 600.892 160.427 594.761 150.666C588.63 140.905 590.534 128.674 599.015 123.347C607.495 118.02 619.34 121.613 625.472 131.374C631.603 141.135 629.699 153.366 621.219 158.693Z" fill="#B0AEAE"/>
<path d="M601.566 85.48L621.419 87.2299C628.27 74.4615 640.105 65.8863 645.165 63.2911C651.394 60.5662 665.641 56.7512 672.804 63.2911C679.967 69.831 679.162 83.4039 677.865 89.3728C675.918 94.9525 668.444 109.537 654.119 123.24C636.212 140.368 614.023 136.086 612.855 136.086C611.687 136.086 608.573 138.033 608.184 143.093C607.872 147.142 609.611 149.971 610.519 150.879C624.845 159.91 647.371 149.452 656.844 143.093C662.034 139.72 674.906 129.469 684.872 115.455C697.329 97.937 695.771 83.1443 695.382 71.8553C694.993 60.5662 686.039 47.3307 671.247 43.8272C656.454 40.3237 640.105 46.5521 625.701 57.8412C614.179 66.8725 604.81 80.0301 601.566 85.48Z" fill="#E8E2DF"/>
<path d="M829.966 176V26.8176H889.697C900.672 26.8176 909.826 28.4445 917.159 31.6981C924.492 34.9518 930.004 39.468 933.694 45.2469C937.385 50.9772 939.23 57.5817 939.23 65.0602C939.23 70.8876 938.065 76.0109 935.734 80.4301C933.403 84.8006 930.198 88.3942 926.119 91.2108C922.088 93.9788 917.475 95.9456 912.279 97.1111V98.5679C917.96 98.8108 923.278 100.413 928.231 103.376C933.233 106.338 937.288 110.49 940.396 115.832C943.504 121.125 945.058 127.438 945.058 134.771C945.058 142.686 943.091 149.752 939.158 155.968C935.273 162.136 929.518 167.016 921.894 170.61C914.27 174.203 904.873 176 893.704 176H829.966ZM861.507 150.214H887.221C896.01 150.214 902.42 148.538 906.451 145.187C910.482 141.788 912.497 137.272 912.497 131.639C912.497 127.511 911.502 123.869 909.511 120.712C907.52 117.556 904.679 115.079 900.988 113.282C897.346 111.485 892.999 110.587 887.949 110.587H861.507V150.214ZM861.507 89.2441H884.89C889.212 89.2441 893.048 88.4913 896.399 86.9859C899.798 85.4319 902.469 83.2467 904.412 80.4301C906.403 77.6135 907.398 74.2384 907.398 70.3049C907.398 64.9145 905.48 60.5682 901.644 57.266C897.856 53.9638 892.465 52.3127 885.472 52.3127H861.507V89.2441ZM991.295 176H957.496L1009 26.8176H1049.64L1101.07 176H1067.27L1029.9 60.9081H1028.74L991.295 176ZM989.183 117.361H1069.02V141.982H989.183V117.361ZM1117.42 176V157.279L1191.87 52.8226H1117.28V26.8176H1231.49V45.5383L1156.98 149.995H1231.64V176H1117.42ZM1281.56 176H1247.76L1299.26 26.8176H1339.9L1391.33 176H1357.53L1320.16 60.9081H1319L1281.56 176ZM1279.44 117.361H1359.28V141.982H1279.44V117.361ZM1409.29 176V26.8176H1468.14C1479.41 26.8176 1489.02 28.833 1496.99 32.8636C1505 36.8457 1511.1 42.5032 1515.27 49.836C1519.5 57.1203 1521.61 65.6915 1521.61 75.5496C1521.61 85.4562 1519.47 93.9788 1515.2 101.117C1510.93 108.207 1504.73 113.646 1496.62 117.434C1488.56 121.222 1478.8 123.116 1467.34 123.116H1427.93V97.7667H1462.24C1468.26 97.7667 1473.27 96.9411 1477.25 95.29C1481.23 93.6389 1484.19 91.1622 1486.14 87.86C1488.13 84.5578 1489.12 80.4543 1489.12 75.5496C1489.12 70.5963 1488.13 66.4199 1486.14 63.0206C1484.19 59.6212 1481.21 57.0475 1477.18 55.2992C1473.19 53.5024 1468.17 52.6041 1462.1 52.6041H1440.83V176H1409.29ZM1489.85 108.11L1526.93 176H1492.11L1455.83 108.11H1489.85ZM910.895 271.722C910.312 265.846 907.811 261.281 903.392 258.028C898.973 254.774 892.975 253.147 885.4 253.147C880.252 253.147 875.906 253.876 872.361 255.332C868.816 256.741 866.096 258.708 864.202 261.233C862.357 263.758 861.434 266.623 861.434 269.828C861.337 272.499 861.896 274.83 863.11 276.821C864.372 278.812 866.096 280.536 868.281 281.993C870.467 283.401 872.992 284.64 875.857 285.708C878.722 286.728 881.782 287.602 885.035 288.33L898.438 291.535C904.946 292.992 910.919 294.935 916.358 297.363C921.797 299.791 926.507 302.778 930.489 306.323C934.471 309.868 937.555 314.044 939.74 318.852C941.974 323.659 943.115 329.171 943.164 335.387C943.115 344.517 940.784 352.432 936.171 359.134C931.606 365.787 925.002 370.959 916.358 374.649C907.762 378.291 897.394 380.112 885.254 380.112C873.21 380.112 862.721 378.267 853.786 374.576C844.899 370.886 837.954 365.422 832.953 358.187C827.999 350.902 825.401 341.894 825.158 331.162H855.68C856.02 336.164 857.452 340.34 859.977 343.691C862.551 346.993 865.975 349.494 870.248 351.194C874.57 352.845 879.451 353.67 884.89 353.67C890.231 353.67 894.869 352.893 898.803 351.339C902.785 349.785 905.868 347.624 908.054 344.856C910.239 342.088 911.332 338.908 911.332 335.314C911.332 331.963 910.336 329.147 908.345 326.864C906.403 324.582 903.537 322.639 899.75 321.037C896.01 319.434 891.421 317.977 885.982 316.666L869.738 312.587C857.161 309.528 847.23 304.744 839.946 298.237C832.661 291.73 829.043 282.964 829.092 271.941C829.043 262.908 831.447 255.017 836.303 248.267C841.208 241.517 847.934 236.248 856.481 232.46C865.028 228.672 874.74 226.778 885.618 226.778C896.69 226.778 906.354 228.672 914.61 232.46C922.914 236.248 929.372 241.517 933.986 248.267C938.599 255.017 940.979 262.835 941.124 271.722H910.895ZM964.379 378V228.818H995.92V290.37H1059.95V228.818H1091.42V378H1059.95V316.375H995.92V378H964.379ZM1254.51 303.409C1254.51 319.677 1251.43 333.517 1245.26 344.929C1239.14 356.341 1230.79 365.058 1220.2 371.08C1209.67 377.053 1197.82 380.04 1184.66 380.04C1171.4 380.04 1159.5 377.029 1148.96 371.007C1138.43 364.985 1130.1 356.269 1123.98 344.856C1117.86 333.444 1114.8 319.629 1114.8 303.409C1114.8 287.141 1117.86 273.3 1123.98 261.888C1130.1 250.476 1138.43 241.784 1148.96 235.811C1159.5 229.789 1171.4 226.778 1184.66 226.778C1197.82 226.778 1209.67 229.789 1220.2 235.811C1230.79 241.784 1239.14 250.476 1245.26 261.888C1251.43 273.3 1254.51 287.141 1254.51 303.409ZM1222.53 303.409C1222.53 292.871 1220.96 283.984 1217.8 276.748C1214.69 269.513 1210.3 264.025 1204.62 260.286C1198.93 256.547 1192.28 254.677 1184.66 254.677C1177.03 254.677 1170.38 256.547 1164.7 260.286C1159.02 264.025 1154.6 269.513 1151.44 276.748C1148.33 283.984 1146.78 292.871 1146.78 303.409C1146.78 313.947 1148.33 322.834 1151.44 330.069C1154.6 337.305 1159.02 342.793 1164.7 346.532C1170.38 350.271 1177.03 352.141 1184.66 352.141C1192.28 352.141 1198.93 350.271 1204.62 346.532C1210.3 342.793 1214.69 337.305 1217.8 330.069C1220.96 322.834 1222.53 313.947 1222.53 303.409ZM1277.88 378V228.818H1336.73C1348.05 228.818 1357.69 230.979 1365.65 235.301C1373.62 239.574 1379.69 245.523 1383.86 253.147C1388.09 260.723 1390.2 269.464 1390.2 279.371C1390.2 289.277 1388.06 298.018 1383.79 305.594C1379.52 313.17 1373.33 319.07 1365.22 323.295C1357.15 327.52 1347.39 329.632 1335.93 329.632H1298.42V304.356H1330.83C1336.9 304.356 1341.91 303.312 1345.84 301.224C1349.82 299.087 1352.78 296.149 1354.73 292.41C1356.72 288.622 1357.71 284.275 1357.71 279.371C1357.71 274.417 1356.72 270.095 1354.73 266.405C1352.78 262.665 1349.82 259.776 1345.84 257.736C1341.86 255.648 1336.81 254.604 1330.69 254.604H1309.42V378H1277.88Z" fill="#B0AEAE"/>
<path d="M826.425 432.17H837.674L864.124 496.775H865.036L891.486 432.17H902.734V510H893.918V450.868H893.158L868.836 510H860.323L836.001 450.868H835.241V510H826.425V432.17ZM924.824 510H914.943L943.521 432.17H953.25L981.828 510H971.947L948.689 444.483H948.081L924.824 510ZM928.472 479.598H968.299V487.958H928.472V479.598ZM979.32 432.17H990.112L1011.7 468.501H1012.61L1034.2 432.17H1044.99L1016.87 477.926V510H1007.44V477.926L979.32 432.17ZM1119.19 471.085C1119.19 479.294 1117.71 486.388 1114.74 492.367C1111.78 498.346 1107.71 502.957 1102.54 506.2C1097.38 509.443 1091.47 511.064 1084.83 511.064C1078.2 511.064 1072.29 509.443 1067.13 506.2C1061.96 502.957 1057.89 498.346 1054.93 492.367C1051.96 486.388 1050.48 479.294 1050.48 471.085C1050.48 462.876 1051.96 455.783 1054.93 449.804C1057.89 443.824 1061.96 439.213 1067.13 435.97C1072.29 432.728 1078.2 431.106 1084.83 431.106C1091.47 431.106 1097.38 432.728 1102.54 435.97C1107.71 439.213 1111.78 443.824 1114.74 449.804C1117.71 455.783 1119.19 462.876 1119.19 471.085ZM1110.07 471.085C1110.07 464.346 1108.94 458.658 1106.69 454.022C1104.46 449.385 1101.43 445.877 1097.6 443.495C1093.8 441.114 1089.55 439.923 1084.83 439.923C1080.12 439.923 1075.85 441.114 1072.03 443.495C1068.23 445.877 1065.2 449.385 1062.94 454.022C1060.72 458.658 1059.6 464.346 1059.6 471.085C1059.6 477.824 1060.72 483.512 1062.94 488.148C1065.2 492.785 1068.23 496.294 1072.03 498.675C1075.85 501.057 1080.12 502.247 1084.83 502.247C1089.55 502.247 1093.8 501.057 1097.6 498.675C1101.43 496.294 1104.46 492.785 1106.69 488.148C1108.94 483.512 1110.07 477.824 1110.07 471.085ZM1135.04 510V432.17H1161.33C1167.41 432.17 1172.41 433.209 1176.31 435.286C1180.21 437.339 1183.1 440.163 1184.97 443.761C1186.85 447.359 1187.78 451.45 1187.78 456.036C1187.78 460.622 1186.85 464.688 1184.97 468.235C1183.1 471.782 1180.22 474.569 1176.35 476.596C1172.47 478.597 1167.52 479.598 1161.49 479.598H1140.2V471.085H1161.18C1165.34 471.085 1168.68 470.477 1171.21 469.261C1173.77 468.045 1175.62 466.322 1176.76 464.093C1177.93 461.838 1178.51 459.152 1178.51 456.036C1178.51 452.92 1177.93 450.196 1176.76 447.865C1175.6 445.535 1173.74 443.736 1171.18 442.469C1168.62 441.177 1165.24 440.531 1161.03 440.531H1144.46V510H1135.04ZM1171.67 475.037L1190.82 510H1179.88L1161.03 475.037H1171.67ZM1212.91 432.17V510H1203.49V432.17H1212.91ZM1274.37 451.628C1273.92 447.777 1272.07 444.787 1268.83 442.659C1265.58 440.531 1261.6 439.467 1256.89 439.467C1253.45 439.467 1250.43 440.024 1247.85 441.139C1245.29 442.254 1243.29 443.786 1241.84 445.737C1240.42 447.688 1239.72 449.905 1239.72 452.388C1239.72 454.465 1240.21 456.251 1241.2 457.746C1242.21 459.216 1243.5 460.444 1245.07 461.432C1246.64 462.395 1248.29 463.193 1250.01 463.827C1251.74 464.435 1253.32 464.929 1254.76 465.309L1262.67 467.437C1264.7 467.969 1266.95 468.704 1269.43 469.641C1271.94 470.578 1274.34 471.858 1276.62 473.479C1278.92 475.075 1280.82 477.128 1282.32 479.636C1283.81 482.144 1284.56 485.222 1284.56 488.87C1284.56 493.076 1283.46 496.876 1281.25 500.271C1279.07 503.666 1275.88 506.364 1271.68 508.366C1267.5 510.367 1262.42 511.368 1256.44 511.368C1250.86 511.368 1246.04 510.469 1241.96 508.67C1237.9 506.871 1234.71 504.363 1232.38 501.145C1230.07 497.928 1228.77 494.191 1228.47 489.935H1238.19C1238.45 492.873 1239.44 495.306 1241.16 497.231C1242.91 499.131 1245.11 500.55 1247.77 501.487C1250.46 502.399 1253.35 502.855 1256.44 502.855C1260.03 502.855 1263.26 502.273 1266.13 501.107C1268.99 499.917 1271.26 498.27 1272.93 496.167C1274.6 494.039 1275.44 491.556 1275.44 488.718C1275.44 486.134 1274.72 484.031 1273.27 482.41C1271.83 480.788 1269.93 479.471 1267.57 478.458C1265.21 477.444 1262.67 476.558 1259.93 475.797L1250.36 473.061C1244.28 471.313 1239.46 468.818 1235.91 465.575C1232.37 462.332 1230.59 458.088 1230.59 452.844C1230.59 448.486 1231.77 444.686 1234.13 441.443C1236.51 438.175 1239.7 435.641 1243.71 433.842C1247.73 432.018 1252.23 431.106 1257.2 431.106C1262.21 431.106 1266.67 432.006 1270.57 433.804C1274.47 435.578 1277.57 438.01 1279.85 441.101C1282.15 444.192 1283.37 447.701 1283.49 451.628H1274.37ZM1295.8 440.531V432.17H1354.17V440.531H1329.7V510H1320.27V440.531H1295.8ZM1362.82 510H1352.93L1381.51 432.17H1391.24L1419.82 510H1409.94L1386.68 444.483H1386.07L1362.82 510ZM1366.46 479.598H1406.29V487.958H1366.46V479.598Z" fill="#B0AEAE"/>
</svg>
