<svg width="746" height="169" viewBox="0 0 746 169" fill="none" xmlns="http://www.w3.org/2000/svg">
<path d="M0 76.7004V17.4999C0 7.83496 7.83496 0 17.4999 0H76.7004C80.4134 0 83.9744 1.47499 86.5999 4.10047L163.874 81.375C170.709 88.2091 170.709 99.2894 163.874 106.124L106.124 163.874C99.2894 170.709 88.2091 170.709 81.375 163.874L4.10047 86.5999C1.47499 83.9744 0 80.4134 0 76.7004Z" fill="#D14D45"/>
<path d="M42.4997 29.9998C42.4997 37.0414 36.7914 42.7497 29.7498 42.7497C22.7082 42.7497 16.9999 37.0414 16.9999 29.9998C16.9999 22.9582 22.7082 17.2499 29.7498 17.2499C36.7914 17.2499 42.4997 22.9582 42.4997 29.9998Z" fill="white"/>
<path d="M79.2022 122.249H58.1536V31.0842H79.2022V64.0238C84.396 57.4633 91.5033 54.593 98.7473 54.593C115.149 54.593 127.86 67.5775 127.86 89.1728C127.86 111.588 115.012 123.889 98.7473 123.889C91.3666 123.889 84.6694 120.882 79.2022 114.595V122.249ZM79.2022 79.1952V99.4237C81.7991 102.977 87.2663 105.301 91.7767 105.301C100.114 105.301 106.401 99.1503 106.401 89.1728C106.401 79.3319 100.114 73.1813 91.7767 73.1813C87.2663 73.1813 81.7991 75.6416 79.2022 79.1952Z" fill="white"/>
<path d="M228.497 95H194.266V36.4563H227.444C239.03 36.4563 244.559 44.0046 244.559 51.3775C244.559 58.6625 240.083 63.5777 234.554 64.8065C240.785 65.772 245.701 71.7405 245.701 79.1133C245.701 87.6272 239.995 95 228.497 95ZM209.363 49.0076V59.1014H224.021C227.093 59.1014 229.199 56.9071 229.199 54.0106C229.199 51.1141 227.093 49.0076 224.021 49.0076H209.363ZM209.363 71.565V82.4486H224.548C228.146 82.4486 230.34 80.2544 230.34 77.0946C230.34 74.1103 228.234 71.565 224.548 71.565H209.363ZM310.8 95H294.386L291.402 86.1351H267.089L264.105 95H247.692L269.723 36.4563H288.681L310.8 95ZM287.452 73.4082L279.202 49.622L271.039 73.4082H287.452ZM358.746 95H313.281V82.9753L338.208 49.622H313.281V36.4563H358.132V48.481L333.117 81.8342H358.746V95ZM424.286 95H407.872L404.888 86.1351H380.575L377.591 95H361.178L383.209 36.4563H402.167L424.286 95ZM400.938 73.4082L392.688 49.622L384.525 73.4082H400.938ZM478.552 95H461.261L451.431 75.1636H443.707V95H428.61V36.4563H457.926C470.916 36.4563 478.289 45.0579 478.289 55.9416C478.289 66.1231 472.057 71.565 466.615 73.4959L478.552 95ZM462.929 55.766C462.929 51.7285 459.593 49.1832 455.644 49.1832H443.707V62.3489H455.644C459.593 62.3489 462.929 59.8035 462.929 55.766ZM504.883 86.7495L512.87 75.4269C517.083 79.64 523.578 83.1508 531.565 83.1508C536.744 83.1508 539.904 80.9565 539.904 78.1478C539.904 74.8125 536.13 73.4959 529.898 72.1794C520.243 70.2484 506.726 67.7908 506.726 53.9228C506.726 44.0924 515.064 35.5786 530.073 35.5786C539.465 35.5786 547.628 38.3872 553.859 43.7413L545.609 54.5372C540.694 50.4997 534.286 48.481 529.108 48.481C524.105 48.481 522.174 50.4997 522.174 53.0451C522.174 56.1171 525.772 57.1704 532.268 58.3992C541.922 60.4179 555.264 63.2266 555.264 76.4802C555.264 88.2416 546.574 96.0533 530.863 96.0533C519.014 96.0533 510.764 92.3668 504.883 86.7495ZM616.831 95H601.734V71.4772H577.421V95H562.325V36.4563H577.421V58.3114H601.734V36.4563H616.831V95ZM624.398 65.772C624.398 47.9544 637.827 35.4908 655.732 35.4908C673.638 35.4908 686.979 47.9544 686.979 65.772C686.979 83.5897 673.638 96.0533 655.732 96.0533C637.827 96.0533 624.398 83.5897 624.398 65.772ZM671.619 65.772C671.619 56.2049 665.387 48.8321 655.732 48.8321C645.99 48.8321 639.758 56.2049 639.758 65.772C639.758 75.2514 645.99 82.712 655.732 82.712C665.387 82.712 671.619 75.2514 671.619 65.772ZM709.679 95H694.582V36.4563H723.898C737.064 36.4563 744.261 45.3212 744.261 55.9416C744.261 66.4742 737.064 75.1636 723.898 75.1636H709.679V95ZM728.901 55.8538C728.901 51.8163 725.917 49.1832 721.879 49.1832H709.679V62.3489H721.879C725.917 62.3489 728.901 59.8035 728.901 55.8538Z" fill="#D14D45"/>
<path d="M219.331 144.233H212.946V127.526L206.672 144.233H203.85L197.613 127.526V144.233H191.228V119.47H200.1L205.261 133.504L210.458 119.47H219.331V144.233ZM254.896 144.233H247.953L246.691 140.483H236.407L235.145 144.233H228.203L237.521 119.47H245.54L254.896 144.233ZM245.02 135.1L241.531 125.039L238.078 135.1H245.02ZM274.383 144.233H267.998V134.246L258.605 119.47H265.807L271.19 128.603L276.499 119.47H283.739L274.383 134.246V144.233ZM289.873 131.87C289.873 124.334 295.553 119.062 303.127 119.062C310.7 119.062 316.344 124.334 316.344 131.87C316.344 139.407 310.7 144.678 303.127 144.678C295.553 144.678 289.873 139.407 289.873 131.87ZM309.847 131.87C309.847 127.823 307.211 124.705 303.127 124.705C299.006 124.705 296.37 127.823 296.37 131.87C296.37 135.88 299.006 139.035 303.127 139.035C307.211 139.035 309.847 135.88 309.847 131.87ZM347.738 144.233H340.424L336.266 135.843H332.999V144.233H326.613V119.47H339.013C344.508 119.47 347.626 123.109 347.626 127.712C347.626 132.019 344.99 134.32 342.689 135.137L347.738 144.233ZM341.129 127.638C341.129 125.93 339.719 124.853 338.048 124.853H332.999V130.422H338.048C339.719 130.422 341.129 129.346 341.129 127.638ZM364.597 144.233H358.212V119.47H364.597V144.233ZM374.324 140.743L377.702 135.954C379.484 137.736 382.232 139.221 385.61 139.221C387.801 139.221 389.137 138.293 389.137 137.105C389.137 135.694 387.541 135.137 384.905 134.58C380.821 133.764 375.104 132.724 375.104 126.858C375.104 122.7 378.631 119.099 384.979 119.099C388.951 119.099 392.404 120.287 395.04 122.552L391.55 127.118C389.471 125.41 386.761 124.556 384.571 124.556C382.455 124.556 381.638 125.41 381.638 126.487C381.638 127.786 383.16 128.232 385.907 128.752C389.991 129.606 395.634 130.794 395.634 136.399C395.634 141.374 391.959 144.678 385.313 144.678C380.301 144.678 376.811 143.119 374.324 140.743ZM417.447 144.233H411.061V125.039H404.119V119.47H424.352V125.039H417.447V144.233ZM456.218 144.233H449.276L448.014 140.483H437.73L436.468 144.233H429.525L438.844 119.47H446.863L456.218 144.233ZM446.343 135.1L442.853 125.039L439.4 135.1H446.343Z" fill="#D14D45"/>
</svg>
