<svg width="338" height="338" viewBox="0 0 338 338" fill="none" xmlns="http://www.w3.org/2000/svg">
<path d="M0 153.402V35C0 15.67 15.67 0 35 0H153.402C160.828 0 167.95 2.94999 173.201 8.20101L327.751 162.751C341.42 176.42 341.42 198.58 327.751 212.249L212.249 327.751C198.58 341.42 176.42 341.42 162.751 327.751L8.20101 173.201C2.94999 167.95 0 160.828 0 153.402Z" fill="#D14D45"/>
<path d="M85 60C85 74.0833 73.5833 85.5 59.5 85.5C45.4167 85.5 34 74.0833 34 60C34 45.9167 45.4167 34.5 59.5 34.5C73.5833 34.5 85 45.9167 85 60Z" fill="white"/>
<path d="M158.406 244.5H116.308V62.1689H158.406V128.049C168.793 114.927 183.008 109.187 197.496 109.187C230.299 109.187 255.722 135.156 255.722 178.347C255.722 223.178 230.026 247.78 197.496 247.78C182.735 247.78 169.34 241.766 158.406 229.192V244.5ZM158.406 158.392V198.849C163.599 205.956 174.534 210.603 183.555 210.603C200.23 210.603 212.804 198.302 212.804 178.347C212.804 158.665 200.23 146.364 183.555 146.364C174.534 146.364 163.599 151.284 158.406 158.392Z" fill="white"/>
</svg>
