<svg width="923" height="656" viewBox="0 0 923 656" fill="none" xmlns="http://www.w3.org/2000/svg">
<path d="M0.666748 328.333V655.667H159.067C341.6 655.667 357.733 655 397.6 645.667C487.067 624.6 540.667 559.4 540.667 471.667C540.667 416.733 519.733 371.933 480.267 342.2C463.733 329.8 437.867 317.933 420.8 315C415.467 314.067 413.067 311.667 417.733 311.667C422 311.667 441.467 302.867 452.133 296.333C464.533 288.6 483.2 270.6 491.333 258.467C522.133 212.467 526.667 143.4 501.867 94.0667C477.2 45.0001 431.467 16.8667 356.267 4.60004C339.067 1.80005 334.933 1.80005 169.733 1.40002L0.666748 0.866699V328.333ZM298.933 120.467C324 125.667 342.8 138.333 354.133 157.667C360 167.533 362.133 176.733 362.267 190.733C362.4 226.6 341.6 251.667 302.533 262.6C292.4 265.4 289.467 265.533 220.4 266.067L148.667 266.467V192.467V118.333H218.667C277.2 118.333 290.4 118.733 298.933 120.467ZM323.867 379.4C347.067 385.8 365.467 398.6 376.8 415.933C389.333 435.533 390.933 470.067 380.133 491.4C369.333 512.867 349.333 527.267 319.333 535.4L306.667 538.867L227.733 539.4L148.667 539.8V457.667V375.533L231.067 375.933C311.067 376.467 313.6 376.467 323.867 379.4Z" fill="#FA571D"/>
<path d="M635.885 546.573C637.019 546.574 638.05 546.575 639.072 546.487C649.137 545.62 658.465 536.192 759.611 433.964L759.8 433.774C817.8 375.24 865.934 325.906 866.867 324.173C871 316.44 870.866 308.039 866.066 256.04L861.4 204.973L855 153.373C853.267 139.107 851.266 133.907 845.533 127.24C837.533 118.174 831.8 115.907 812.467 114.307C802.868 113.507 795.003 112.44 795 112.04L777.333 110.706L748.333 108.706C742.066 108.306 722.6 106.707 705 105.107C671.4 102.173 663.266 102.306 656.066 105.906C653.666 107.241 623.266 136.44 588.6 170.973C528.6 230.84 525.267 234.44 521 243.507C510.733 265.774 491 290.04 472.2 304.173L463 310.973L474.733 317.64C499.4 331.773 516.333 347.374 531 369.774C539.667 382.974 551.266 410.441 554.333 424.974C557 437.241 559.4 465.24 558.733 477.107L558.333 486.974L587.667 513.64C618.334 541.506 625.667 546.573 635.667 546.573H635.885ZM798.575 204.697C787.683 211.539 772.468 206.923 764.593 194.386C756.717 181.849 759.164 166.139 770.057 159.296C780.949 152.454 796.164 157.07 804.039 169.607C811.914 182.143 809.468 197.854 798.575 204.697Z" fill="#4B555A"/>
<path d="M773.333 110.659L798.833 112.907C807.633 96.5068 822.833 85.4925 829.333 82.1592C837.333 78.6592 855.633 73.7592 864.833 82.1592C874.033 90.5592 873 107.993 871.333 115.659C868.833 122.826 859.233 141.559 840.833 159.159C817.833 181.159 789.333 175.659 787.833 175.659C786.333 175.659 782.333 178.159 781.833 184.659C781.433 189.859 783.667 193.493 784.833 194.659C803.233 206.259 832.167 192.826 844.333 184.659C851 180.326 867.533 167.159 880.333 149.159C896.333 126.659 894.333 107.659 893.833 93.1592C893.333 78.6592 881.833 61.6592 862.833 57.1592C843.833 52.6592 822.833 60.6592 804.333 75.1592C789.533 86.7592 777.5 103.659 773.333 110.659Z" fill="#353536"/>
</svg>
